<svg version="1.1" id="Layer_1" xmlns="http://www.w3.org/2000/svg" xmlns:xlink="http://www.w3.org/1999/xlink" x="0px" y="0px"
	 width="100%" viewBox="0 0 225 225" enable-background="new 0 0 225 225" xml:space="preserve">
<path fill="#FEFEFE" opacity="1.000000" stroke="none" 
	d="
M152.000000,226.000000 
	C101.333336,226.000000 51.166672,226.000000 1.000007,226.000000 
	C1.000005,151.000000 1.000005,76.000015 1.000002,1.000011 
	C74.666656,1.000000 148.333359,1.030416 221.999802,0.903709 
	C225.424225,0.897819 226.102371,1.575538 226.096344,5.000134 
	C225.969025,77.333244 225.969055,149.666687 226.096359,221.999786 
	C226.102386,225.424210 225.428589,226.129898 221.999191,226.101181 
	C198.834137,225.907227 175.666687,226.000000 152.000000,226.000000 
z"/>
<path fill="#020202" opacity="1.000000" stroke="none" 
	d="
M150.896133,63.041214 
	C158.162613,62.739483 162.843887,59.265488 165.845779,53.256245 
	C167.336700,50.271702 168.854675,47.303822 172.097946,45.737942 
	C175.024063,44.325180 176.636826,44.773209 176.103027,48.412277 
	C175.239456,54.299206 177.474701,59.986923 177.615768,65.571060 
	C177.893784,76.576500 183.945084,86.209435 183.621078,97.150154 
	C183.494675,101.418327 183.634079,105.677940 182.135651,110.767754 
	C180.186874,107.116165 178.550705,103.987144 173.948212,104.119118 
	C175.651627,111.725449 177.031601,119.170959 176.326355,126.845062 
	C175.137604,139.780182 170.034790,150.510986 159.448990,158.385925 
	C157.316071,159.972641 155.178909,161.610077 153.318588,163.495361 
	C149.151840,167.717987 148.930023,170.783417 152.090515,175.723862 
	C146.149216,177.287689 142.006607,174.409027 138.878326,166.401413 
	C137.521240,167.136383 137.338699,168.549179 137.145142,169.692368 
	C135.083084,181.871811 127.261803,189.167786 116.694847,194.273026 
	C115.375954,194.910233 114.575394,195.069473 113.137794,194.385300 
	C102.497635,189.321533 94.666702,182.039429 92.726158,169.787323 
	C92.572716,168.818542 92.147194,167.878036 91.745003,166.970062 
	C91.558228,166.548416 91.123894,166.236420 90.387047,165.408997 
	C90.321541,169.254700 88.777344,171.949677 86.112999,173.957962 
	C83.546532,175.892471 80.833206,177.308319 77.346703,175.958344 
	C80.763695,170.831070 80.628426,168.169144 76.736557,163.857849 
	C75.516777,162.506622 74.155724,161.223038 72.667412,160.183197 
	C54.799427,147.699356 50.819313,130.223679 54.382736,109.934456 
	C54.710667,108.067291 57.076164,105.351570 54.589447,104.391899 
	C52.224613,103.479256 50.144295,105.961464 48.942482,108.340111 
	C48.668858,108.881668 48.320736,109.385574 47.894390,110.093689 
	C45.074745,102.370125 45.388767,95.307045 48.795200,82.240005 
	C51.731892,70.974876 54.506420,59.671745 53.547047,47.861031 
	C53.295853,44.768562 54.816978,44.486221 57.229919,45.497952 
	C60.212315,46.748444 61.703983,49.332539 63.188805,51.959507 
	C69.597572,63.298023 78.254608,66.191628 89.966217,60.330017 
	C97.765099,56.426712 105.425049,53.188557 114.237610,56.634163 
	C114.528931,56.748066 114.929184,56.839985 115.192444,56.731991 
	C124.785110,52.796791 133.037872,56.763527 141.274353,61.054543 
	C144.122940,62.538593 147.251572,63.070599 150.896133,63.041214 
z"/>
<path fill="#EFEFEF" opacity="1.000000" stroke="none" 
	d="
M88.979797,81.021385 
	C87.808449,79.395081 86.716995,78.123985 86.390633,75.771362 
	C94.704407,77.897644 102.147354,76.050285 109.515244,72.523758 
	C112.943581,70.882843 117.270210,70.960426 120.734985,72.653282 
	C127.824326,76.117088 134.972885,78.039284 143.826248,75.371620 
	C141.464966,81.329224 138.112411,84.431740 133.060684,85.962082 
	C128.537384,87.332359 125.659767,85.605469 122.906311,81.966919 
	C118.669327,76.367966 111.961403,76.243629 107.445312,81.161423 
	C101.076584,88.096649 96.453346,88.133484 88.979797,81.021385 
z"/>
</svg>