<svg version="1.1" id="Layer_1" xmlns="http://www.w3.org/2000/svg" xmlns:xlink="http://www.w3.org/1999/xlink" x="0px" y="0px"
	 width="100%" viewBox="0 0 225 225" enable-background="new 0 0 225 225" xml:space="preserve">
<path fill="#FEFEFE" opacity="1.000000" stroke="none" 
	d="
M226.000000,87.000000 
	C226.000000,132.500000 225.963089,177.500092 226.083466,222.499771 
	C226.091431,225.482941 225.482254,226.086517 222.499878,226.082199 
	C149.833359,225.976944 77.166634,225.976929 4.500119,226.082199 
	C1.517747,226.086517 0.913467,225.482254 0.917787,222.499878 
	C1.023051,149.833359 1.023051,77.166634 0.917787,4.500119 
	C0.913467,1.517747 1.517747,0.913467 4.500119,0.917788 
	C77.166634,1.023048 149.833359,1.023048 222.499878,0.917788 
	C225.482254,0.913467 226.101135,1.515658 226.085297,4.500453 
	C225.940247,31.833017 226.000000,59.166668 226.000000,87.000000 
z"/>
<path fill="#353535" opacity="1.000000" stroke="none" 
	d="
M101.402405,194.954193 
	C100.352890,196.699158 100.112175,198.588898 97.187187,196.259735 
	C90.722870,191.112167 85.369659,185.092026 80.812462,178.262695 
	C79.997559,177.041504 79.825363,174.939178 77.268349,175.191269 
	C78.260429,178.566467 79.238503,181.820374 80.166611,185.088470 
	C80.527412,186.358963 82.218948,188.003387 80.463318,188.866318 
	C78.840080,189.664169 78.105080,187.453964 77.255096,186.366135 
	C71.649536,179.191986 67.930191,171.113724 65.999435,162.217148 
	C65.864365,161.594788 66.000389,160.877563 65.050293,160.574020 
	C64.122665,166.234497 65.084633,171.798782 65.742699,177.430099 
	C57.832798,172.192093 54.559345,156.175583 56.287266,131.229660 
	C53.169178,131.519165 50.789822,134.260132 46.821095,133.842682 
	C62.176212,117.860939 72.776031,99.706284 77.628502,78.411629 
	C73.819084,82.495346 72.780144,88.062584 70.191277,92.803429 
	C67.603020,97.543129 65.260162,102.404762 61.281437,107.655899 
	C60.099476,91.520958 60.540897,76.809418 66.856476,62.780411 
	C67.713463,60.876751 69.027435,59.481785 70.591339,58.220085 
	C79.098793,51.356621 88.462730,46.295792 100.082733,44.628433 
	C91.628441,43.224720 84.659706,45.015583 76.407440,50.273663 
	C75.181320,51.054905 73.983757,53.412960 72.311951,51.602077 
	C70.951958,50.128952 72.632744,48.480896 73.445953,47.142025 
	C77.137535,41.064182 82.382507,36.957951 89.666611,35.115738 
	C90.202362,35.238503 90.368912,35.327568 90.760147,35.244049 
	C102.817917,32.363216 118.670044,41.516331 124.451744,55.749115 
	C127.322479,48.795338 116.877945,37.362648 103.338486,32.896442 
	C102.017342,31.955099 100.851189,31.995163 99.347290,31.997540 
	C97.927475,32.021126 96.854576,32.043182 95.386894,31.979963 
	C94.430725,31.321663 94.263481,30.661812 94.768661,29.605724 
	C103.635864,24.599590 111.391113,27.288839 119.812775,32.811272 
	C117.811302,27.550383 113.479584,27.127522 109.758690,25.341339 
	C115.229523,23.043655 120.611671,23.001245 126.147499,22.485374 
	C132.460571,21.897078 138.076096,22.892040 143.375656,25.260113 
	C151.815689,29.031481 159.018677,34.710995 162.054947,43.926445 
	C163.278961,47.641541 166.817261,48.516376 169.045563,50.771908 
	C173.256912,55.034710 175.391159,59.875038 177.101212,65.221039 
	C181.172607,77.949112 182.279831,91.120537 180.853638,104.227684 
	C179.294159,118.559860 179.597656,132.797363 180.277481,147.096970 
	C180.738770,156.800339 178.616592,165.911758 173.967804,174.429825 
	C173.334152,175.590836 172.540558,176.670029 171.758240,177.741257 
	C171.511688,178.078873 171.060150,178.266800 170.394028,178.744293 
	C169.580688,174.773483 170.369827,170.891922 168.869965,166.479507 
	C165.192139,174.929886 161.045914,182.280853 155.278000,188.600235 
	C152.909424,191.195282 150.447403,193.704468 147.390778,195.435883 
	C146.562210,195.905243 145.008331,198.871155 143.971451,195.187790 
	C143.561356,193.731064 142.795013,195.346237 142.361847,195.706329 
	C126.556648,208.844559 117.762360,208.728165 101.402405,194.954193 
z"/>
<path fill="#282828" opacity="1.000000" stroke="none" 
	d="
M99.319374,32.117043 
	C100.321541,30.663361 101.607155,30.432800 102.907532,32.444427 
	C101.868820,32.589390 100.753601,32.412205 99.319374,32.117043 
z"/>
<path fill="#282828" opacity="1.000000" stroke="none" 
	d="
M94.657288,29.403809 
	C94.992073,29.956251 94.999786,30.602390 94.999802,31.571608 
	C94.050140,31.855865 92.327377,31.956539 92.291519,31.755840 
	C92.037910,30.336300 93.517166,30.170725 94.657288,29.403809 
z"/>
<path fill="#1F1F1F" opacity="1.000000" stroke="none" 
	d="
M90.742554,35.029839 
	C90.730881,35.199524 90.476936,35.327583 90.129395,35.302536 
	C90.035805,35.149433 90.500275,34.988216 90.742554,35.029839 
z"/>
<path fill="#FCFCFC" opacity="1.000000" stroke="none" 
	d="
M79.351730,144.800781 
	C84.284615,137.685623 86.997017,130.033432 88.585075,121.482979 
	C87.769020,119.596283 87.659210,118.114601 88.754135,116.304634 
	C89.961349,112.928230 90.072487,109.729355 89.780296,106.607117 
	C89.456825,103.150528 90.412842,101.762878 94.072357,102.163261 
	C99.833977,102.793655 105.632347,103.088051 111.393784,103.523079 
	C110.520569,99.489182 107.203125,98.500275 103.506714,98.099297 
	C99.736000,97.690254 95.963036,97.256676 92.179298,97.030556 
	C90.070625,96.904541 89.181686,96.152527 89.394020,93.971451 
	C90.250259,85.176262 91.533012,76.481415 96.056915,68.684837 
	C99.478271,62.788429 104.362152,59.191902 111.573784,60.029568 
	C116.156845,60.561909 119.596275,62.622921 120.867279,67.306114 
	C119.753571,68.403839 119.193520,67.612961 118.626953,67.072754 
	C112.583420,61.310280 101.781548,63.714203 98.635231,71.490776 
	C98.260986,72.415771 97.443344,73.388420 98.563377,74.063446 
	C99.366386,74.547417 100.639946,74.391434 101.284538,73.534416 
	C103.190796,70.999969 105.486732,71.580620 108.218475,71.891029 
	C123.544464,73.632568 138.745331,72.437035 153.782150,69.098228 
	C156.959320,68.392769 156.937653,68.295166 159.504181,66.304695 
	C160.557281,67.544350 159.782654,69.230042 160.955261,70.661598 
	C165.028442,75.634300 165.964233,81.481430 163.938126,87.558533 
	C162.451309,92.018135 165.428070,95.921921 165.092255,100.596039 
	C166.840561,103.660934 166.231812,106.779793 167.007187,109.427177 
	C166.799255,110.271988 167.851913,109.887146 167.185623,109.909332 
	C167.019196,109.914871 167.027878,109.767845 167.065887,109.450768 
	C167.270813,107.740791 167.901382,106.276939 169.710632,105.196228 
	C170.867493,105.041046 171.699417,104.953438 172.537415,105.915398 
	C173.435394,106.410004 173.468140,107.072029 173.789032,107.936874 
	C174.401794,114.909561 172.782623,121.191650 170.176331,127.655670 
	C170.212402,128.217407 170.277832,128.410309 170.119995,128.811859 
	C169.574112,129.266815 169.251465,129.513138 168.847046,130.056274 
	C168.614838,130.279221 168.464417,130.205368 168.185547,129.915466 
	C168.150223,128.066162 168.243332,126.432930 168.218903,124.404945 
	C167.488434,123.443695 166.902710,122.715439 165.720703,123.758018 
	C163.431900,133.253036 161.891876,142.847595 154.875687,150.202332 
	C152.868103,152.306793 156.490295,152.720291 155.814407,154.387695 
	C154.968155,155.639404 154.264496,154.498840 153.427994,154.171280 
	C146.397461,151.418259 140.235550,146.854462 133.328262,144.032562 
	C125.352684,140.774231 116.817490,140.768280 108.839569,144.576508 
	C101.576889,148.043320 95.013733,152.988144 85.312088,155.466919 
	C91.725166,151.083389 86.948677,148.856186 85.566261,146.155396 
	C84.510429,144.092651 82.964622,143.234802 80.547653,145.137665 
	C79.931099,145.203796 79.665504,145.200043 79.351730,144.800781 
z"/>
<path fill="#F7F7F7" opacity="1.000000" stroke="none" 
	d="
M113.112846,164.789398 
	C108.031631,165.213852 103.269234,165.327026 99.186630,162.095963 
	C98.461182,161.521851 97.263313,161.514786 97.272720,160.152481 
	C97.283607,158.577194 98.721634,159.221222 99.395195,158.690353 
	C99.647720,158.491318 99.986633,158.397308 100.292786,158.271530 
	C123.381691,148.786133 119.058731,147.752289 145.983383,159.338165 
	C143.013702,164.667923 134.487732,167.458359 129.482025,164.733566 
	C125.139839,162.369934 120.419159,164.577225 115.508789,163.704208 
	C114.666824,164.413574 114.000580,164.463684 113.112846,164.789398 
z"/>
<path fill="#E8E8E8" opacity="1.000000" stroke="none" 
	d="
M137.908936,34.029274 
	C136.038620,32.472309 135.404785,30.205147 131.708313,29.619688 
	C144.172485,28.129694 151.821289,47.319969 146.169373,62.284760 
	C144.240952,60.834225 145.166351,59.200432 145.435059,57.505169 
	C146.847412,48.594799 145.909805,40.356480 137.908936,34.029274 
z"/>
<path fill="#EEEEEE" opacity="1.000000" stroke="none" 
	d="
M147.237366,32.402737 
	C157.036896,40.367634 159.689011,50.110264 154.752365,61.039452 
	C155.269775,51.029373 153.588379,41.683243 146.968262,33.469040 
	C146.904709,32.958820 146.958359,32.772587 147.237366,32.402737 
z"/>
<path fill="#EDEDED" opacity="1.000000" stroke="none" 
	d="
M136.746002,45.708466 
	C139.259903,52.105766 137.399689,59.935368 132.165344,64.348366 
	C134.191422,57.872101 134.704330,51.812157 133.513321,45.641365 
	C133.079865,43.395458 134.412994,43.626911 136.017288,44.706154 
	C136.307648,45.208126 136.413452,45.368923 136.746002,45.708466 
z"/>
<path fill="#2F2F2F" opacity="1.000000" stroke="none" 
	d="
M169.985840,104.769485 
	C167.617615,107.880081 168.249542,111.585426 166.258163,114.862488 
	C165.883392,110.535027 165.508621,106.207565 165.162033,101.442841 
	C167.696823,100.861565 168.821152,102.633926 169.985840,104.769485 
z"/>
<path fill="#4D4D4D" opacity="1.000000" stroke="none" 
	d="
M88.688782,115.956337 
	C88.963257,117.462357 88.930649,118.925499 88.758034,120.724533 
	C86.457115,120.511368 82.570145,122.391655 83.642166,117.327972 
	C83.947693,115.884842 82.555779,114.147072 84.898521,113.155060 
	C87.986481,111.847488 86.628067,115.770096 88.688782,115.956337 
z"/>
<path fill="#484848" opacity="1.000000" stroke="none" 
	d="
M73.285927,117.738602 
	C73.692741,115.045403 71.243042,115.327118 69.562401,115.293991 
	C69.690727,112.203857 73.626717,113.787926 73.508263,110.856094 
	C73.948036,113.209557 74.353981,115.338028 73.285927,117.738602 
z"/>
<path fill="#282828" opacity="1.000000" stroke="none" 
	d="
M165.855042,123.889862 
	C165.973236,122.647469 164.980652,120.442528 166.836151,120.249191 
	C168.596771,120.065758 168.384903,121.905144 168.210678,123.607735 
	C167.502136,123.982124 166.902878,123.954048 165.855042,123.889862 
z"/>
<path fill="#484848" opacity="1.000000" stroke="none" 
	d="
M72.706207,117.983704 
	C72.367317,118.925659 71.562057,119.207542 70.593758,118.554001 
	C70.474236,118.473328 70.593903,118.038269 70.602737,117.767426 
	C71.205963,117.834091 71.809189,117.900749 72.706207,117.983704 
z"/>
<path fill="#FCFCFC" opacity="1.000000" stroke="none" 
	d="
M79.979706,144.999985 
	C79.907837,145.929688 79.282921,146.069183 78.726952,145.759018 
	C78.108589,145.414047 78.746223,145.094772 79.122757,144.596954 
	C79.456604,144.534302 79.609665,144.663345 79.979706,144.999985 
z"/>
<path fill="#2F2F2F" opacity="1.000000" stroke="none" 
	d="
M173.915710,107.885849 
	C173.591705,107.704933 173.256882,107.191093 172.867523,106.367371 
	C173.176956,106.555969 173.540924,107.054451 173.915710,107.885849 
z"/>
<path fill="#282828" opacity="1.000000" stroke="none" 
	d="
M113.169258,164.920624 
	C113.352165,164.542496 113.870613,164.136002 114.721992,163.766571 
	C114.538223,164.166519 114.021515,164.529404 113.169258,164.920624 
z"/>
<path fill="#EEEEEE" opacity="1.000000" stroke="none" 
	d="
M146.206207,32.042747 
	C145.421494,31.928610 145.081100,31.637371 145.358994,31.094345 
	C145.420486,30.974138 145.871185,31.053070 146.365173,31.254896 
	C146.552200,31.650530 146.516739,31.831575 146.206207,32.042747 
z"/>
<path fill="#EEEEEE" opacity="1.000000" stroke="none" 
	d="
M147.020416,32.924423 
	C146.577164,32.956692 146.303238,32.768330 145.980225,32.326424 
	C145.931122,32.072876 146.249283,31.760691 146.418472,31.615088 
	C146.812576,31.597960 147.016937,31.753464 147.331757,32.077560 
	C147.371765,32.380684 147.280762,32.542240 147.020416,32.924423 
z"/>
<path fill="#282828" opacity="1.000000" stroke="none" 
	d="
M170.074890,128.949844 
	C169.899719,128.844757 169.902679,128.669037 170.026306,128.258896 
	C170.275726,128.224899 170.419571,128.418381 170.517944,128.632721 
	C170.533722,128.667114 170.346436,128.794708 170.074890,128.949844 
z"/>
<path fill="#282828" opacity="1.000000" stroke="none" 
	d="
M168.104401,129.847916 
	C168.057098,129.699402 168.381577,130.065720 168.573425,130.209396 
	C168.436920,130.427399 168.232407,130.308517 168.104401,129.847916 
z"/>
<path fill="#1B1B1B" opacity="1.000000" stroke="none" 
	d="
M136.894775,45.706371 
	C136.693741,45.775501 136.414734,45.663784 136.168793,45.299698 
	C136.454697,45.145172 136.659683,45.304569 136.894775,45.706371 
z"/>
<path fill="#FEFEFE" opacity="1.000000" stroke="none" 
	d="
M101.097275,194.813522 
	C100.891441,194.899826 100.516129,195.161438 100.479156,195.120132 
	C100.175781,194.781296 100.290710,194.599869 100.897621,194.782639 
	C101.053391,194.915939 101.084602,194.848465 101.097275,194.813522 
z"/>
<path fill="#F7F7F7" opacity="1.000000" stroke="none" 
	d="
M128.314819,118.644608 
	C124.492836,120.617271 120.479401,123.848366 119.831528,116.395287 
	C119.802063,116.056374 119.229584,115.524529 118.880325,115.499664 
	C117.926178,115.431747 117.448738,116.179977 117.160103,116.977333 
	C116.607201,118.504745 116.475754,120.624557 114.515900,120.795486 
	C111.428307,121.064789 108.266396,121.063019 105.192909,120.697289 
	C103.321915,120.474663 104.588013,117.997810 103.453796,116.925934 
	C102.476921,118.233635 103.673630,121.080742 100.783707,120.937325 
	C97.535194,120.776108 93.717628,122.287216 91.252655,119.723587 
	C89.984520,118.404694 90.348915,115.237457 92.286057,113.518356 
	C94.156898,111.858101 96.228798,111.790894 97.855515,113.977707 
	C98.525276,114.878090 98.894287,116.002197 99.513527,117.253815 
	C100.351616,114.892578 100.673149,111.912109 103.842491,112.231133 
	C106.903870,112.539291 111.322578,111.391708 111.036522,117.008247 
	C111.003525,117.656036 111.244827,118.445572 112.133781,118.192383 
	C112.715279,118.026772 113.354362,117.594307 113.686806,117.094536 
	C117.770149,110.955971 119.694748,110.347626 127.629913,112.962296 
	C129.515121,114.610687 129.418533,116.409264 128.314819,118.644608 
z"/>
<path fill="#F6F6F6" opacity="1.000000" stroke="none" 
	d="
M128.082214,119.381668 
	C128.000595,117.285858 128.000565,115.572632 128.000885,113.431381 
	C127.907280,112.181313 127.950111,111.312988 127.690895,110.546860 
	C127.153564,108.958778 126.154800,106.711372 127.579727,105.971344 
	C129.255295,105.101143 131.501205,106.341385 132.964539,107.725212 
	C134.939041,109.592415 132.541245,110.517838 131.807831,111.796066 
	C131.573502,112.204453 131.461472,112.683014 131.125259,113.576500 
	C135.483109,112.639305 139.687103,110.642754 143.246384,114.912857 
	C144.034180,115.857964 144.558044,113.488632 145.668335,113.136879 
	C146.910004,112.743538 147.957397,111.886139 149.403259,112.715294 
	C150.855530,113.548119 151.093918,114.526802 150.514923,116.016205 
	C149.537018,118.531815 150.527420,118.993103 152.857925,118.234978 
	C153.904419,117.894554 154.905716,118.330406 154.764450,119.718292 
	C154.654800,120.795570 153.724152,120.668098 152.907867,120.869888 
	C149.030807,121.828293 145.321655,119.298157 141.274261,120.626350 
	C139.558655,121.189346 140.558701,118.152878 139.582687,117.021019 
	C138.247757,117.949394 139.859329,120.763550 137.504654,120.727608 
	C135.273682,120.693573 136.498947,118.299835 135.477875,116.887596 
	C134.652435,122.368599 131.708359,121.948181 128.082214,119.381668 
z"/>
<path fill="#3B3B3B" opacity="1.000000" stroke="none" 
	d="
M145.775146,97.802650 
	C157.219833,96.001289 158.172516,97.568558 161.081161,106.015831 
	C151.679596,99.233902 141.973145,103.564972 132.198578,103.594162 
	C133.617996,99.159866 136.764389,97.772163 140.844086,98.528183 
	C142.583084,98.850426 144.019196,99.238243 145.775146,97.802650 
z"/>
<path fill="#FCFCFC" opacity="1.000000" stroke="none" 
	d="
M107.114700,117.295410 
	C107.835396,116.442459 107.860970,117.138748 107.888321,117.499908 
	C107.906487,117.739853 107.648514,118.000710 107.514145,118.252213 
	C107.369087,118.008308 107.224014,117.764397 107.114700,117.295410 
z"/>
</svg>