<svg version="1.1" id="Layer_1" xmlns="http://www.w3.org/2000/svg" xmlns:xlink="http://www.w3.org/1999/xlink" x="0px" y="0px"
	 width="100%" viewBox="0 0 225 225" enable-background="new 0 0 225 225" xml:space="preserve">
<path fill="#FEFEFE" opacity="1.000000" stroke="none" 
	d="
M226.000000,83.000000 
	C226.000000,129.833328 225.964111,176.166763 226.083359,222.499786 
	C226.091049,225.482880 225.482254,226.086517 222.499878,226.082199 
	C149.833359,225.976944 77.166634,225.976929 4.500119,226.082199 
	C1.517747,226.086517 0.913467,225.482254 0.917787,222.499878 
	C1.023051,149.833359 1.023051,77.166634 0.917787,4.500119 
	C0.913467,1.517747 1.517747,0.913467 4.500119,0.917788 
	C77.166634,1.023048 149.833359,1.023048 222.499878,0.917788 
	C225.482254,0.913467 226.102524,1.515452 226.085510,4.500487 
	C225.937347,30.499643 226.000000,56.500000 226.000000,83.000000 
z"/>
<path fill="#262425" opacity="1.000000" stroke="none" 
	d="
M85.670898,20.256420 
	C96.697632,16.132406 107.737122,14.492664 119.562622,14.973330 
	C120.172424,15.189534 120.322998,15.303622 120.719910,15.277676 
	C125.691833,15.233513 130.306656,15.942369 136.219421,17.683126 
	C130.034775,19.686747 124.762650,19.856432 119.735107,22.153423 
	C119.478607,24.296885 117.683609,24.470098 116.534134,25.132078 
	C111.517700,28.021019 107.791733,32.093624 105.315338,36.708961 
	C108.789482,31.784412 112.748772,26.717009 119.891632,25.017979 
	C130.731659,21.305750 141.128906,20.763390 151.371918,25.907917 
	C154.125809,27.291054 157.010071,28.484407 158.647873,31.875057 
	C153.384674,31.760181 148.326523,31.553490 143.162842,33.460804 
	C141.497925,36.508656 137.619415,36.622887 136.473694,39.736488 
	C138.709152,38.746750 139.836578,36.208595 142.664062,35.778751 
	C149.924332,33.077778 156.592697,34.587257 163.320221,36.829380 
	C165.167862,37.445160 165.152695,38.386108 164.965881,39.734249 
	C164.715500,41.541313 163.784882,43.520161 164.256927,45.091640 
	C164.804871,46.915783 159.930405,50.391155 166.251617,50.994392 
	C168.234131,51.183590 168.723419,56.392281 168.951523,59.548981 
	C169.266113,63.902939 168.097763,68.108940 167.219299,72.682281 
	C165.677597,74.598061 162.059692,75.548424 165.688599,78.738396 
	C164.398361,89.066002 162.069366,99.006966 161.131622,109.588913 
	C160.400040,110.546051 159.668442,110.778091 158.469147,110.546745 
	C156.386230,108.661224 157.078659,106.710724 157.766373,104.471657 
	C157.839462,103.696793 159.036865,103.735695 158.094788,103.032745 
	C155.095657,105.989891 155.226883,110.092224 153.555038,113.476631 
	C150.885086,118.881538 148.511505,120.368599 142.941406,119.232330 
	C142.455841,118.498260 142.386902,118.001869 142.595886,117.124161 
	C147.321915,113.998955 149.726120,109.931839 150.398773,104.625961 
	C150.873917,100.877960 149.620361,98.513084 145.960358,97.448181 
	C140.888763,95.972580 135.808792,96.002769 130.690094,97.191772 
	C128.285263,97.750381 125.879570,98.672264 123.046982,97.374435 
	C122.249313,96.433754 122.092606,95.649658 122.205032,94.415939 
	C125.626205,88.396645 131.649902,89.749794 136.595093,88.989517 
	C141.437546,88.245033 146.451584,88.838287 151.244965,90.855637 
	C155.396606,92.602898 156.189590,91.703682 155.514771,87.072014 
	C155.008759,83.599045 153.648514,80.353363 152.677902,77.005890 
	C151.468369,72.834511 150.327301,68.659454 150.647018,64.276047 
	C150.912323,60.638706 149.889374,59.665413 146.103867,60.821480 
	C127.603310,66.471436 108.843285,66.897331 89.955261,62.889919 
	C85.881500,62.025604 81.960609,60.633965 77.686935,59.171719 
	C76.811989,58.996861 76.974846,57.791641 76.153221,58.282696 
	C75.983093,58.384369 76.156631,58.638958 76.723701,59.107742 
	C77.935135,63.095749 77.148308,66.733170 76.301674,70.254860 
	C74.716156,76.850128 73.412613,83.557419 70.071732,90.017715 
	C68.201241,91.511620 67.525887,94.234772 64.393707,93.220490 
	C63.429943,89.592484 62.785374,86.206467 62.155834,82.409256 
	C63.124023,80.859772 63.204243,79.286179 64.240211,78.133293 
	C65.098785,77.177818 67.243103,76.402748 65.829872,74.643448 
	C64.625046,73.143600 63.119625,74.710258 61.398640,74.891663 
	C59.259514,72.265587 55.462845,70.278633 58.925758,66.179008 
	C59.968517,64.944527 58.834309,62.984367 58.453617,61.382458 
	C56.774242,54.315758 58.507366,47.725651 61.291790,41.290089 
	C61.416737,41.001308 61.678616,40.725002 61.947079,40.552216 
	C65.149651,38.490971 64.994896,38.440510 66.169960,35.113544 
	C68.647789,28.098034 73.021011,22.750404 80.563377,20.060287 
	C82.321716,21.394440 81.785568,22.824234 80.922249,24.102003 
	C77.704216,28.864948 76.713203,34.140526 77.135040,40.115696 
	C77.244934,41.229160 77.684929,41.965630 77.556412,42.818520 
	C77.968063,42.581581 77.958504,42.297672 77.630234,41.774994 
	C77.511292,41.347713 77.496323,41.163792 77.435074,40.693817 
	C77.400742,40.207588 77.412689,40.007412 77.477554,39.504219 
	C77.769287,38.144058 77.843071,37.074116 77.762337,35.638290 
	C77.855545,29.076521 79.912666,23.849352 85.670898,20.256420 
z"/>
<path fill="#252022" opacity="1.000000" stroke="none" 
	d="
M149.186127,195.774567 
	C148.622070,196.250961 148.237152,196.555588 147.606934,196.910492 
	C145.317734,197.812668 142.820404,198.070496 142.196655,201.184540 
	C140.316025,202.623718 138.505478,203.757629 136.663956,204.838760 
	C136.102203,205.168579 135.411942,205.640320 134.854523,205.556290 
	C131.922501,205.114227 132.208374,205.486816 129.506393,207.243011 
	C122.047798,212.090836 113.819962,213.069809 105.256577,210.746490 
	C101.261215,209.662537 97.268257,208.506180 94.924797,204.521866 
	C94.232231,203.344391 93.937042,203.417679 92.611275,204.792877 
	C91.619957,205.821167 90.859489,205.131851 90.030281,204.702530 
	C82.716728,200.915955 76.330193,196.389236 72.416267,188.590271 
	C65.699440,175.206177 61.818073,161.214890 61.024460,146.431259 
	C63.193813,144.829514 62.263927,150.485855 64.802460,147.392853 
	C66.766594,143.967331 69.393440,143.323608 69.985779,145.792786 
	C71.109444,150.476776 73.813316,150.174393 77.519073,149.452606 
	C78.847969,150.314331 79.385582,151.419647 80.334442,152.638260 
	C80.810211,153.532303 80.983253,154.160934 81.095184,154.811066 
	C82.203545,161.249023 83.473328,161.827713 89.888031,158.518585 
	C92.246826,157.758316 94.128769,158.470062 96.359375,159.190277 
	C99.119331,162.875687 101.853920,163.866119 105.165359,160.399124 
	C105.746140,159.791061 106.540527,159.169098 107.334053,159.329636 
	C111.857048,160.244797 116.064278,156.806519 120.961472,158.371399 
	C121.789368,158.301392 122.256218,158.363586 123.007805,158.705017 
	C125.515701,162.686890 128.388062,163.726562 132.621811,162.261292 
	C134.018875,161.777802 135.132324,160.743195 136.851959,160.129135 
	C137.414429,159.977020 137.643112,159.930389 138.216949,159.839844 
	C138.790924,159.776428 139.019760,159.756927 139.588379,159.711044 
	C143.312469,159.725037 143.786224,157.387131 143.984909,154.442017 
	C144.231766,153.181625 144.603806,152.333939 145.296707,151.253860 
	C145.685532,150.832596 145.864395,150.689072 146.357819,150.415436 
	C147.103195,150.200531 147.537125,150.169159 148.277405,150.277954 
	C148.764786,150.426346 148.949997,150.505905 149.395218,150.709106 
	C150.011688,150.949432 150.336899,150.906418 150.723679,150.402405 
	C150.532806,148.204239 148.881958,150.108429 147.934891,149.017700 
	C147.072006,147.940063 147.004105,146.978561 147.177307,145.607269 
	C147.422180,144.737900 147.647293,144.274261 148.170135,143.530853 
	C149.196274,142.430008 150.148972,142.143768 151.607346,142.407043 
	C154.269730,144.824646 157.803970,145.149933 160.245636,147.873627 
	C162.732956,154.039001 162.250198,160.197769 162.602707,166.638367 
	C160.755646,175.772141 157.154144,183.879303 152.464233,191.860779 
	C151.171707,192.607559 150.808228,193.630295 150.246521,194.888657 
	C150.135544,195.187943 150.111267,195.094559 150.158203,195.105682 
	C149.856430,195.159988 149.576477,195.321991 149.186127,195.774567 
z"/>
<path fill="#262425" opacity="1.000000" stroke="none" 
	d="
M78.610504,149.820312 
	C76.843010,150.156342 75.700691,150.158539 74.618279,150.414291 
	C72.004898,151.031815 70.544014,149.990967 69.844757,147.429688 
	C69.007034,144.361252 67.332787,144.406799 65.139091,146.879181 
	C61.525784,143.778000 64.448151,140.647903 65.289948,137.186249 
	C65.913139,136.872406 66.163269,136.637238 66.023033,136.081757 
	C65.823952,129.290634 65.869652,122.653275 65.876236,115.554733 
	C66.180244,113.578468 65.647354,111.760757 67.747971,110.653793 
	C71.999001,113.659996 70.765137,118.305092 71.752457,122.632973 
	C72.962425,123.783882 68.438408,124.744133 72.111320,125.650940 
	C75.277489,133.254059 79.701096,139.588135 85.548752,145.287659 
	C84.373848,148.435669 81.563881,148.615341 78.610504,149.820312 
z"/>
<path fill="#201E1F" opacity="1.000000" stroke="none" 
	d="
M64.019165,93.404785 
	C66.811386,93.854866 66.750732,90.212624 69.219421,89.995514 
	C70.140480,90.837555 70.101303,91.888809 70.590652,93.093536 
	C70.903038,93.724174 71.081909,94.084160 71.354118,94.732681 
	C71.444481,95.197021 71.433853,95.376617 71.373535,95.780685 
	C71.312393,96.671722 70.518478,96.147614 71.154739,96.338486 
	C71.819847,96.538017 71.577904,95.781944 71.951637,95.240341 
	C76.170593,89.606094 81.722557,88.241989 88.444244,89.335648 
	C90.758347,92.891418 87.103836,93.314270 85.615257,95.284081 
	C83.568268,96.740288 81.653542,97.287979 79.194000,96.932945 
	C77.938026,96.597725 76.749077,95.118523 76.366638,97.727295 
	C76.347939,104.871307 76.466362,111.645386 83.036530,116.496666 
	C83.487045,117.226944 83.592079,117.698433 83.464119,118.537323 
	C77.616516,120.280106 75.521278,119.003929 73.593193,113.832718 
	C72.404419,110.644356 73.118225,106.528275 69.134537,104.623795 
	C68.172958,105.316750 67.535240,105.930458 66.352676,106.090149 
	C65.166054,105.430992 65.223381,104.503815 65.002014,103.333145 
	C64.084351,101.984810 63.850800,100.844955 64.446106,99.259598 
	C64.397057,97.233109 64.180428,95.532082 64.019165,93.404785 
z"/>
<path fill="#201E1F" opacity="1.000000" stroke="none" 
	d="
M160.302185,148.098557 
	C157.482468,146.354263 153.746185,146.956711 152.038696,143.360123 
	C150.898056,140.319366 151.663452,137.716980 152.353012,134.763702 
	C152.489441,134.204666 152.587067,133.991867 152.921265,133.517715 
	C155.020309,132.049423 156.546341,130.639511 156.900940,128.250626 
	C157.095810,126.937714 157.509171,125.582901 159.579346,125.796707 
	C161.574905,127.822327 160.869888,130.094955 160.968719,132.614075 
	C160.804672,133.474182 160.805832,133.925156 160.998825,134.702850 
	C161.947083,137.917053 162.790207,140.805252 163.330872,143.851852 
	C161.382980,144.919571 162.239883,147.279724 160.302185,148.098557 
z"/>
<path fill="#262425" opacity="1.000000" stroke="none" 
	d="
M159.863403,148.328339 
	C161.696365,147.229111 159.358429,144.005569 162.715302,144.030518 
	C168.739273,151.430740 163.589630,158.860474 162.883011,166.643738 
	C162.218140,166.632919 161.290985,166.275726 161.281082,165.894730 
	C161.130829,160.111465 160.867218,154.345276 159.863403,148.328339 
z"/>
<path fill="#E5E4E5" opacity="1.000000" stroke="none" 
	d="
M85.986732,19.864616 
	C82.462463,24.602268 78.531273,28.798239 78.445389,35.133751 
	C78.494606,36.702145 78.483932,38.053593 78.160576,39.718193 
	C77.910187,40.037579 77.683098,40.449295 77.638916,40.680202 
	C77.488098,41.238358 77.381493,41.565609 76.816063,42.129589 
	C74.608612,35.296021 75.774307,28.820812 80.316574,23.041513 
	C80.850060,22.362734 81.168922,21.657650 80.885849,20.416285 
	C82.444489,18.526640 83.902740,16.419361 85.986732,19.864616 
z"/>
<path fill="#E5E4E5" opacity="1.000000" stroke="none" 
	d="
M120.051010,24.327583 
	C118.107300,27.829905 114.207779,27.773899 111.810532,30.454708 
	C108.841927,33.774464 105.708405,36.886364 104.252426,41.316143 
	C103.050468,34.896893 109.153999,27.283325 119.062263,22.406269 
	C119.551994,22.761063 119.707924,23.204458 120.051010,24.327583 
z"/>
<path fill="#2C2C2C" opacity="1.000000" stroke="none" 
	d="
M58.284466,110.718979 
	C56.321732,107.554466 56.056557,104.037895 55.868660,100.465126 
	C55.744030,98.095360 56.239529,95.784355 58.451107,95.149399 
	C60.481819,94.566368 61.949043,96.391907 62.898880,98.664330 
	C63.370945,99.370544 63.479477,99.810913 63.181591,100.592926 
	C57.451019,100.990120 59.042133,104.999321 59.027580,108.543640 
	C59.424202,109.672890 59.090885,110.173332 58.284466,110.718979 
z"/>
<path fill="#262425" opacity="1.000000" stroke="none" 
	d="
M167.712616,107.375259 
	C167.908661,104.750336 169.249390,102.031281 165.395325,100.980293 
	C164.847000,100.784691 164.690506,100.653801 164.379456,100.258774 
	C164.253418,97.492363 164.907700,95.184082 167.919342,95.491310 
	C170.788696,95.784012 171.241135,98.274109 171.047455,100.648735 
	C170.820557,103.430618 170.311966,106.189529 169.893143,109.363708 
	C167.436676,111.039543 167.442261,109.434921 167.712616,107.375259 
z"/>
<path fill="#C4C4C4" opacity="1.000000" stroke="none" 
	d="
M57.927612,111.224533 
	C58.208004,110.336090 58.438957,109.861488 58.862736,109.181152 
	C59.778698,108.868294 60.855228,107.832733 61.162369,108.946495 
	C62.141689,112.497787 64.582947,115.703011 63.821930,119.690605 
	C63.673145,120.470215 63.886528,121.436523 62.799019,121.628372 
	C61.846977,121.796318 61.321838,121.116600 60.895191,120.377892 
	C59.325138,117.659439 58.003773,114.855370 57.927612,111.224533 
z"/>
<path fill="#D1D1D1" opacity="1.000000" stroke="none" 
	d="
M167.576691,107.053177 
	C168.606064,107.845573 167.123734,109.602737 169.500031,109.843704 
	C169.940048,112.484589 168.568619,114.815086 167.729630,117.259308 
	C166.996078,119.396278 165.719025,121.346695 164.673615,123.396133 
	C164.162979,123.114594 163.634949,122.872330 163.651672,122.825752 
	C165.479843,117.736206 162.352142,111.511360 167.576691,107.053177 
z"/>
<path fill="#252324" opacity="1.000000" stroke="none" 
	d="
M60.967995,75.288330 
	C62.731663,73.800003 63.748005,70.492462 66.545036,73.114410 
	C68.001595,74.479790 70.342979,75.798462 66.586098,77.595177 
	C65.016457,78.345863 64.070045,80.399727 62.505569,81.929565 
	C61.650276,79.916855 60.355453,77.993706 60.967995,75.288330 
z"/>
<path fill="#262425" opacity="1.000000" stroke="none" 
	d="
M159.937881,125.632233 
	C158.401733,126.170227 157.901138,127.129189 158.026245,128.432632 
	C158.375504,132.071594 156.237579,133.436172 152.693848,133.947540 
	C151.801346,129.280380 154.027023,125.326324 155.953094,120.968765 
	C157.860641,120.228523 158.673615,121.204308 159.615479,122.690186 
	C159.906235,123.750000 159.958878,124.504768 159.937881,125.632233 
z"/>
<path fill="#201E1F" opacity="1.000000" stroke="none" 
	d="
M159.933655,122.576813 
	C158.636795,123.033455 158.100677,122.099991 157.200470,121.150665 
	C156.608215,120.600449 156.408554,120.154358 156.319824,119.279671 
	C156.371048,118.401978 156.431717,117.901237 156.527710,117.019318 
	C156.792450,114.580627 156.401215,112.424515 157.830780,110.256485 
	C158.860077,109.997292 159.584641,109.990173 160.671448,109.990860 
	C160.870712,114.066765 161.879486,118.233147 159.933655,122.576813 
z"/>
<path fill="#D5D3D4" opacity="1.000000" stroke="none" 
	d="
M142.960892,35.334431 
	C139.865982,37.962673 137.583359,41.368233 132.769073,42.418102 
	C135.264954,38.072132 138.169403,35.364006 142.490112,33.730476 
	C142.871063,34.056618 142.896240,34.421741 142.960892,35.334431 
z"/>
<path fill="#252324" opacity="1.000000" stroke="none" 
	d="
M166.069611,78.649445 
	C164.243881,79.003227 162.343521,78.913139 162.235168,76.826439 
	C162.104263,74.305573 163.889374,73.211182 166.630081,73.006233 
	C166.744751,74.767998 166.484192,76.533951 166.069611,78.649445 
z"/>
<path fill="#060405" opacity="1.000000" stroke="none" 
	d="
M65.900543,106.374802 
	C66.540428,105.418274 67.046875,104.846359 67.813507,104.145538 
	C69.731758,105.891922 69.490517,108.002060 68.571999,110.548737 
	C66.544075,111.621750 67.409569,113.606552 66.146835,114.894348 
	C64.431931,112.327110 64.612709,109.547348 65.900543,106.374802 
z"/>
<path fill="#191919" opacity="1.000000" stroke="none" 
	d="
M142.447144,201.321930 
	C142.185165,199.834167 142.590332,198.132492 141.190598,196.425812 
	C143.373215,196.651962 144.963715,196.816757 146.957916,196.971161 
	C146.650269,199.261154 143.677063,199.065079 142.447144,201.321930 
z"/>
<path fill="#DEDEDE" opacity="1.000000" stroke="none" 
	d="
M62.986267,101.208321 
	C62.938381,100.458038 62.909039,100.033936 62.958908,99.300537 
	C63.300339,98.971207 63.562546,98.951187 64.219215,98.932648 
	C64.759964,100.068428 64.906242,101.202728 64.977127,102.677864 
	C63.970680,102.905777 63.246593,102.528343 62.986267,101.208321 
z"/>
<path fill="#262425" opacity="1.000000" stroke="none" 
	d="
M161.197113,134.838318 
	C160.071884,134.703918 158.147095,134.746918 160.607925,133.064392 
	C161.033386,133.565292 161.161819,134.106537 161.197113,134.838318 
z"/>
<path fill="#191919" opacity="1.000000" stroke="none" 
	d="
M150.428802,195.047287 
	C150.076965,193.952667 149.729645,192.593781 151.823181,192.093811 
	C151.705505,193.014114 151.213791,193.960373 150.428802,195.047287 
z"/>
<path fill="#191919" opacity="1.000000" stroke="none" 
	d="
M149.289566,195.986023 
	C149.240189,195.708557 149.473389,195.470764 149.955872,195.174896 
	C149.994141,195.419769 149.783142,195.722733 149.289566,195.986023 
z"/>
<path fill="#3B3B3B" opacity="1.000000" stroke="none" 
	d="
M164.146454,100.279739 
	C164.494919,100.099983 164.700729,100.279099 164.922913,100.723785 
	C164.691666,100.798660 164.379837,100.681747 164.146454,100.279739 
z"/>
<path fill="#060405" opacity="1.000000" stroke="none" 
	d="
M120.734970,15.048922 
	C120.702400,15.222890 120.438538,15.308138 120.098267,15.234416 
	C120.021858,15.075446 120.503693,14.960200 120.734970,15.048922 
z"/>
<path fill="#0B090A" opacity="1.000000" stroke="none" 
	d="
M65.626663,136.150970 
	C65.955040,136.144272 66.131828,136.360550 66.308617,136.576828 
	C66.179596,136.644791 66.050583,136.712769 65.707214,136.846832 
	C65.486923,136.733261 65.481003,136.553604 65.626663,136.150970 
z"/>
<path fill="#FBFAFA" opacity="1.000000" stroke="none" 
	d="
M72.025490,95.967957 
	C72.402382,95.467690 72.293678,95.231392 71.794838,94.996925 
	C71.019516,94.923279 70.695206,94.742905 70.223534,94.253983 
	C68.718819,93.055771 69.711433,91.823151 69.641876,90.324280 
	C71.159988,82.100441 74.380669,74.639931 75.257332,66.630165 
	C75.522240,64.209816 75.320229,61.738361 75.418198,58.878246 
	C75.637680,58.230839 75.771065,57.995495 76.197739,57.479744 
	C101.647499,66.392944 126.812889,66.072754 152.507996,57.246727 
	C149.804611,68.458885 155.441147,78.344406 157.277222,88.862694 
	C158.195374,94.122581 157.056885,95.400284 152.105728,93.239189 
	C147.749451,91.337761 143.411163,89.404579 138.710846,90.197052 
	C133.684464,91.044502 128.301956,90.625534 123.411163,93.698898 
	C121.305481,94.442413 121.253258,96.801704 119.165726,97.595718 
	C117.602608,98.303146 116.370399,98.917999 114.817230,99.691330 
	C112.226868,100.400932 109.982536,99.861549 108.424767,98.453636 
	C103.536713,94.035782 97.523621,92.601280 91.380516,91.346985 
	C90.732841,91.214729 90.142097,90.912590 89.294212,90.325447 
	C82.611122,89.267303 77.220757,91.763344 72.322327,95.464417 
	C72.213676,95.933434 71.876793,96.082695 72.025490,95.967957 
z"/>
<path fill="#FAFAFA" opacity="1.000000" stroke="none" 
	d="
M68.521057,111.251442 
	C68.296616,108.910706 68.283020,106.887527 68.171570,104.440491 
	C68.766945,103.081306 67.957710,101.645950 69.385208,100.661560 
	C72.709625,103.894157 73.092903,108.477203 74.578156,112.473907 
	C75.979996,116.246162 77.945511,118.872925 82.651306,118.858253 
	C87.798729,116.446426 92.922417,118.217834 98.211807,117.459351 
	C100.591774,116.724808 102.642395,116.137383 104.212746,114.056915 
	C105.603775,112.724960 106.531219,111.497856 107.012451,109.583374 
	C108.074814,106.726540 108.559669,103.920670 111.574104,102.288513 
	C112.686806,101.982086 113.441521,102.003456 114.547806,102.310608 
	C119.228897,105.261002 119.471626,111.084450 123.767685,114.380554 
	C127.682266,118.951195 132.593979,118.908974 137.565430,118.484169 
	C139.174591,118.346664 140.751022,117.635406 142.673660,118.667679 
	C148.069290,119.436417 151.078033,117.121635 152.448120,112.274864 
	C153.253647,109.425209 154.639755,106.710297 155.182343,103.825256 
	C155.594833,101.632072 156.360046,100.872360 158.656891,101.652115 
	C159.036194,102.133934 159.204407,102.306068 159.138092,102.752655 
	C158.596909,105.092796 158.290253,107.158478 158.059540,109.614281 
	C158.040131,112.328186 157.944763,114.651962 157.893433,117.409309 
	C157.781448,118.117500 157.601349,118.375290 157.255859,118.805389 
	C157.036316,119.434135 156.958084,119.873756 156.911011,120.648567 
	C155.463745,125.050880 153.985321,129.117996 152.391693,133.566742 
	C152.276489,133.948349 151.965973,134.266022 151.948151,134.487427 
	C151.397903,139.462189 147.215988,141.667114 144.481445,145.279266 
	C143.948013,145.828857 143.662598,146.157806 143.225372,146.784515 
	C142.827911,147.451965 142.566284,147.813049 141.991974,148.345200 
	C137.486710,148.963577 135.682724,144.767700 132.006042,143.430908 
	C130.271378,142.286926 129.046692,141.020950 127.270020,139.963577 
	C126.440460,139.497925 125.893112,139.181274 125.037788,138.775681 
	C124.185066,138.382980 123.625992,138.102829 122.745850,137.778961 
	C120.813446,137.161850 119.182419,137.034073 117.263458,137.883057 
	C115.198219,138.860901 113.577957,140.132812 111.381073,139.102646 
	C105.793617,136.482574 101.083160,138.835709 96.538338,141.900452 
	C93.529572,143.929367 90.868645,146.521820 86.911652,147.584351 
	C86.066971,147.424683 85.679420,147.146210 85.265335,146.399384 
	C83.774780,142.371094 79.199493,142.217331 77.395821,138.423401 
	C75.567268,134.577179 73.448311,130.848267 71.990028,126.429932 
	C71.567711,125.627792 71.189987,125.176201 71.006325,124.288712 
	C70.231552,119.851990 69.481728,115.710487 68.521057,111.251442 
z"/>
<path fill="#F9F8F9" opacity="1.000000" stroke="none" 
	d="
M122.645950,96.895874 
	C125.961510,97.974228 128.507690,96.204689 131.215759,95.664978 
	C136.711411,94.569710 142.092407,94.807877 147.483566,96.073738 
	C149.141754,96.463081 150.574524,97.163483 151.406662,98.820717 
	C154.027557,104.040306 149.358917,115.079857 143.345016,117.052773 
	C136.569244,119.562057 130.281876,120.511078 124.251022,115.213501 
	C120.697212,110.719055 117.000076,106.689468 118.036484,100.357101 
	C119.253059,98.532860 120.379089,97.154655 122.645950,96.895874 
z"/>
<path fill="#151515" opacity="1.000000" stroke="none" 
	d="
M123.484863,114.052307 
	C129.192032,119.863457 135.819199,117.504623 142.567795,117.073700 
	C142.992065,117.535950 142.996552,117.919632 142.995331,118.591049 
	C138.460556,119.070343 134.094437,120.732483 129.354370,119.446999 
	C126.816162,118.758667 124.867203,117.748253 122.982697,115.660828 
	C122.446655,114.822777 122.530037,114.393219 123.484863,114.052307 
z"/>
<path fill="#191919" opacity="1.000000" stroke="none" 
	d="
M123.008682,96.626877 
	C121.874016,97.980621 120.745216,98.929543 119.353897,100.060326 
	C118.318779,99.498299 118.212929,98.599884 118.692490,97.186981 
	C120.731125,96.160789 119.354164,92.043663 122.936310,93.504242 
	C123.057053,94.603699 123.035797,95.412880 123.008682,96.626877 
z"/>
<path fill="#D5D3D4" opacity="1.000000" stroke="none" 
	d="
M64.474686,45.747406 
	C64.870796,48.052113 65.021477,50.163261 65.172157,52.274406 
	C64.897163,52.328087 64.622177,52.381763 64.347183,52.435440 
	C63.908493,50.540253 63.469799,48.645061 63.080551,46.358322 
	C63.425228,45.639610 63.795231,45.511517 64.474686,45.747406 
z"/>
<path fill="#252324" opacity="1.000000" stroke="none" 
	d="
M156.794159,71.202072 
	C156.734146,72.231346 156.380447,72.792694 155.604126,72.361282 
	C155.326645,72.207092 155.142288,71.436607 155.275787,71.083771 
	C155.565338,70.318504 156.153397,70.242737 156.794159,71.202072 
z"/>
<path fill="#FEFEFE" opacity="1.000000" stroke="none" 
	d="
M64.770874,45.489082 
	C64.366997,45.948875 64.013885,45.956783 63.395382,45.965729 
	C63.070015,44.732044 62.203381,42.835541 63.704651,42.515072 
	C65.531860,42.125027 64.568138,44.093327 64.770874,45.489082 
z"/>
<path fill="#252324" opacity="1.000000" stroke="none" 
	d="
M161.794327,71.202042 
	C161.734375,72.231323 161.380890,72.792885 160.604462,72.361313 
	C160.326965,72.207077 160.142670,71.436615 160.276138,71.083694 
	C160.565643,70.318275 161.153610,70.242592 161.794327,71.202042 
z"/>
<path fill="#252324" opacity="1.000000" stroke="none" 
	d="
M60.134811,55.367210 
	C60.882362,54.245750 61.306622,54.921448 61.529541,55.484280 
	C61.629684,55.737118 61.216446,56.193283 61.036163,56.557186 
	C60.728256,56.250019 60.420349,55.942852 60.134811,55.367210 
z"/>
<path fill="#B3B1B2" opacity="1.000000" stroke="none" 
	d="
M76.386383,42.678543 
	C76.527603,42.093250 76.697937,41.820179 77.231506,41.229111 
	C77.688026,41.096821 77.781319,41.282528 77.997337,41.754803 
	C78.204048,42.186943 78.288033,42.332520 78.274780,42.710686 
	C78.117683,43.874470 78.057823,44.805664 77.992363,45.823948 
	C76.444077,45.271442 77.116974,43.781166 76.386383,42.678543 
z"/>
<path fill="#060405" opacity="1.000000" stroke="none" 
	d="
M78.231499,39.774353 
	C77.456352,38.583820 77.633553,37.141109 78.399582,35.541489 
	C78.960907,36.772831 79.272774,38.174492 78.231499,39.774353 
z"/>
<path fill="#252324" opacity="1.000000" stroke="none" 
	d="
M130.389526,45.465492 
	C129.577621,45.696487 129.286316,45.410427 129.409485,44.781826 
	C129.435150,44.650848 129.619888,44.474022 129.751907,44.453972 
	C130.388306,44.357342 130.654251,44.667164 130.389526,45.465492 
z"/>
<path fill="#252324" opacity="1.000000" stroke="none" 
	d="
M166.399338,58.724358 
	C166.558746,58.850647 166.581726,59.068741 166.604706,59.286835 
	C166.490768,59.129944 166.376831,58.973053 166.399338,58.724358 
z"/>
<path fill="#060405" opacity="1.000000" stroke="none" 
	d="
M78.339020,42.865974 
	C78.177544,42.943275 78.073349,42.497131 78.096710,42.269249 
	C78.246872,42.290470 78.373680,42.539574 78.339020,42.865974 
z"/>
<path fill="#FBFAFA" opacity="1.000000" stroke="none" 
	d="
M75.767761,58.162533 
	C75.274590,57.818344 74.594788,57.030048 76.243431,57.045242 
	C76.337753,57.419189 76.184479,57.639038 75.767761,58.162533 
z"/>
<path fill="#252324" opacity="1.000000" stroke="none" 
	d="
M160.532379,61.550114 
	C160.476990,61.583149 160.587769,61.517078 160.532379,61.550114 
z"/>
<path fill="#0B090A" opacity="1.000000" stroke="none" 
	d="
M159.088013,102.926720 
	C158.847763,102.851227 158.791992,102.675339 158.802109,102.230629 
	C159.157242,102.177719 159.759750,102.247070 159.088013,102.926720 
z"/>
<path fill="#242122" opacity="1.000000" stroke="none" 
	d="
M85.674026,147.088165 
	C91.258224,145.261612 94.812531,140.745041 99.815712,138.542068 
	C103.978157,136.709274 108.036957,134.633682 112.380951,138.187836 
	C114.004242,139.515976 114.717216,136.817841 116.525330,136.995056 
	C119.435059,135.769806 120.174362,137.888321 120.861404,139.430878 
	C122.377815,142.835541 124.195190,145.681686 127.808540,147.402924 
	C130.011124,148.452133 131.570694,150.660736 131.383972,153.790436 
	C125.319565,155.228714 120.775482,151.830246 116.437202,148.887527 
	C113.931053,147.187561 112.921188,147.251587 110.714249,149.020676 
	C106.256508,152.594009 100.602013,153.898636 95.435623,156.130096 
	C93.776764,156.846588 91.868027,156.973633 90.254219,158.529007 
	C88.736465,162.085175 85.826340,162.447495 83.151413,161.748474 
	C78.982109,160.658905 80.162727,156.867661 79.999268,153.429108 
	C79.830589,152.063034 79.838074,151.134888 80.231598,149.885529 
	C81.658798,148.022308 83.644814,147.873932 85.674026,147.088165 
z"/>
<path fill="#F3F1F2" opacity="1.000000" stroke="none" 
	d="
M90.459053,158.870300 
	C89.941162,157.859451 87.663994,156.450912 90.492943,156.086746 
	C95.501167,155.442078 99.815872,152.918900 104.432304,151.207825 
	C108.246872,149.793961 111.659142,147.973358 113.363091,143.195435 
	C116.706940,151.055710 124.435410,150.974030 130.534546,154.230896 
	C132.328583,153.846863 133.593903,154.633270 135.293945,154.809662 
	C136.133331,154.946564 136.605743,155.082016 137.402008,155.449280 
	C138.364120,156.256378 138.529373,156.984909 138.059341,158.168365 
	C133.298019,161.461319 128.607422,162.729553 123.269592,159.488434 
	C122.584740,159.073105 122.167114,158.989807 121.411514,158.872955 
	C116.003899,155.557724 111.080276,155.039719 106.103584,159.196503 
	C103.705818,161.199234 100.768517,161.728821 97.341057,160.611145 
	C94.950432,159.928284 92.901543,159.424362 90.459053,158.870300 
z"/>
<path fill="#201E1F" opacity="1.000000" stroke="none" 
	d="
M138.421143,158.330780 
	C137.663361,157.516663 137.438843,157.150589 137.091217,156.586151 
	C136.764648,155.645203 136.264130,155.387222 135.264908,155.687958 
	C133.775406,155.499283 132.552826,155.129929 131.122681,154.512405 
	C131.187134,152.182541 129.698273,149.976639 128.611633,149.627762 
	C122.271996,147.592316 121.399643,141.050293 117.208298,137.002472 
	C118.533707,134.575394 120.528755,135.997940 122.726128,136.719116 
	C123.521919,137.931671 123.951698,138.949829 125.149994,139.811371 
	C126.659386,142.688828 128.868195,142.886093 131.677277,142.229065 
	C135.626251,143.205215 137.984818,146.304947 141.599136,147.974869 
	C144.023361,147.524246 144.557693,149.458984 145.876175,150.721283 
	C145.766663,151.828033 145.507584,152.622070 145.124252,153.708374 
	C143.906418,156.759445 143.317719,160.157059 138.421143,158.330780 
z"/>
<path fill="#201E1F" opacity="1.000000" stroke="none" 
	d="
M97.016106,160.799377 
	C100.883598,160.256393 104.345131,159.324265 107.394310,156.534027 
	C110.821342,153.398026 117.677208,154.425308 121.007996,158.477188 
	C120.596039,159.263351 119.819725,160.135986 119.684486,160.045959 
	C115.798233,157.457993 112.122253,162.484711 108.182632,160.284134 
	C106.675972,159.442566 106.084534,161.336594 105.185028,162.201874 
	C102.125160,165.145309 99.204681,164.753342 97.016106,160.799377 
z"/>
<path fill="#262425" opacity="1.000000" stroke="none" 
	d="
M146.261658,151.014816 
	C144.149063,151.060272 143.371735,149.642105 142.225037,148.163177 
	C142.023941,147.534668 142.096558,147.092590 142.160904,146.311722 
	C142.406326,145.632401 142.682297,145.310867 142.995163,144.688263 
	C146.472824,141.854752 149.466431,138.916412 151.687454,134.883713 
	C152.929749,134.987396 154.266190,135.777328 153.406509,136.592667 
	C151.383133,138.511658 153.455246,140.706833 152.260239,142.783875 
	C151.130112,143.159958 150.266693,143.322495 149.198090,143.748779 
	C148.742996,144.203094 148.524414,144.424576 148.168289,144.839020 
	C148.000122,146.066330 148.000839,147.131622 147.996780,148.890137 
	C147.875885,149.962738 147.682709,150.296143 147.185379,150.775650 
	C146.970520,150.974945 146.497589,150.995651 146.261658,151.014816 
z"/>
<path fill="#201E1F" opacity="1.000000" stroke="none" 
	d="
M123.003967,159.558121 
	C127.884018,160.973709 132.579712,160.413895 137.511139,157.966843 
	C137.887894,157.882736 137.982513,157.980316 138.030029,158.028900 
	C138.604080,158.763687 138.738983,159.517517 138.236282,160.670670 
	C134.583084,162.744659 131.317749,164.626343 127.111542,164.100464 
	C124.298660,163.748779 122.802620,162.913376 123.003967,159.558121 
z"/>
<path fill="#242122" opacity="1.000000" stroke="none" 
	d="
M138.251740,160.999634 
	C138.013290,160.268799 138.022308,159.537582 138.054443,158.441925 
	C141.381165,158.645676 143.548477,157.423370 144.685852,154.041840 
	C145.071884,157.226746 145.260101,160.523300 140.387634,160.993866 
	C139.836578,160.868576 139.668274,160.737778 139.247040,160.802567 
	C138.994110,160.998169 138.499191,160.999252 138.251740,160.999634 
z"/>
<path fill="#262425" opacity="1.000000" stroke="none" 
	d="
M149.317673,152.122787 
	C148.999222,151.829071 148.997971,151.662064 148.994385,151.244568 
	C148.489746,150.595459 147.948944,150.232071 147.851746,149.302643 
	C147.993713,149.012573 147.998291,149.003174 148.000977,148.999512 
	C149.736542,149.281616 150.297745,146.359299 152.097061,147.331696 
	C153.498581,148.089066 152.054794,149.295242 152.031555,150.650513 
	C151.371826,151.716660 150.552414,152.075546 149.317673,152.122787 
z"/>
<path fill="#262425" opacity="1.000000" stroke="none" 
	d="
M80.719650,149.696075 
	C80.822983,150.792877 80.677841,151.681320 80.265823,152.783844 
	C78.550461,152.935989 77.975113,152.101456 77.978287,150.388000 
	C77.958084,150.038834 78.267891,149.720261 78.422249,149.560455 
	C79.219261,149.187424 79.850540,149.221619 80.719650,149.696075 
z"/>
<path fill="#201E1F" opacity="1.000000" stroke="none" 
	d="
M149.198547,152.252441 
	C149.787201,151.679047 150.573944,151.362015 151.679733,151.020050 
	C151.807999,152.662811 151.067947,153.386292 149.198547,152.252441 
z"/>
<path fill="#201E1F" opacity="1.000000" stroke="none" 
	d="
M147.747253,149.173065 
	C148.256378,149.501434 148.519058,149.990311 148.886902,150.736603 
	C148.543091,150.994217 148.094101,150.994400 147.307831,150.984772 
	C147.147278,150.427826 147.324036,149.880692 147.747253,149.173065 
z"/>
<path fill="#201E1F" opacity="1.000000" stroke="none" 
	d="
M139.246796,160.999603 
	C139.271072,160.886612 139.548050,160.775070 139.914948,160.831451 
	C139.836426,160.999939 139.667969,161.000488 139.246796,160.999603 
z"/>
<path fill="#201E1F" opacity="1.000000" stroke="none" 
	d="
M148.215668,144.892639 
	C148.103104,144.682922 148.289902,144.425003 148.776337,144.119904 
	C148.889557,144.330551 148.702576,144.587784 148.215668,144.892639 
z"/>
<path fill="#F3F1F2" opacity="1.000000" stroke="none" 
	d="
M81.114975,149.590637 
	C80.345619,149.858719 79.723122,149.813004 78.838608,149.583954 
	C79.703423,146.826584 82.904655,147.987503 84.798645,146.095459 
	C85.468803,146.154312 85.701332,146.352982 85.942078,146.859528 
	C84.774086,148.537094 82.996384,148.860214 81.114975,149.590637 
z"/>
<path fill="#252022" opacity="1.000000" stroke="none" 
	d="
M73.331818,146.292023 
	C72.231010,146.725098 71.129395,146.828888 71.608780,145.631363 
	C71.950287,144.778244 73.204208,143.683151 74.392647,144.721786 
	C74.950310,145.209137 74.179611,145.820770 73.331818,146.292023 
z"/>
<path fill="#F5F4F5" opacity="1.000000" stroke="none" 
	d="
M70.732224,124.068275 
	C71.311028,124.475990 71.640663,124.958496 71.974274,125.749649 
	C71.805298,125.165825 68.819107,126.469574 70.732224,124.068275 
z"/>
<path fill="#F5F4F5" opacity="1.000000" stroke="none" 
	d="
M107.819885,109.612206 
	C107.866577,111.537788 107.398178,112.946922 105.649445,113.931221 
	C102.981445,114.532845 101.734566,116.838249 99.196785,117.775185 
	C93.787704,118.942085 88.743774,118.738632 83.372307,117.397110 
	C76.760239,114.476578 73.971001,107.468483 75.282921,97.729004 
	C75.468437,96.187698 76.392891,96.101082 77.704544,96.130447 
	C80.117683,95.821747 82.182640,95.467529 84.622437,95.005630 
	C93.134346,92.245880 100.522446,94.369049 107.871689,98.746468 
	C110.539757,102.579308 107.692551,105.862152 107.819885,109.612206 
z"/>
<path fill="#252324" opacity="1.000000" stroke="none" 
	d="
M107.969513,100.257935 
	C101.119370,95.432304 93.554482,95.033943 85.448486,94.959229 
	C85.057045,92.355507 88.276993,92.789009 88.942177,90.438034 
	C94.065132,90.344398 98.927849,91.675285 103.806007,92.913956 
	C106.777405,93.668465 107.137939,97.882370 110.733932,98.064285 
	C111.710251,98.113670 112.799866,98.868729 114.344803,98.842468 
	C115.160233,98.578003 115.591576,98.604431 116.226700,99.211571 
	C116.494370,99.747108 116.551331,99.984268 116.585884,100.587173 
	C116.376968,101.676247 116.023750,102.308525 115.211288,103.050568 
	C114.168694,103.187477 113.436790,103.133476 112.348991,102.985558 
	C110.725273,102.095779 109.380371,101.415932 107.969513,100.257935 
z"/>
<path fill="#060405" opacity="1.000000" stroke="none" 
	d="
M83.045593,117.454018 
	C88.390800,117.222008 93.785240,119.162796 99.532822,116.859306 
	C100.094963,116.983566 100.242516,117.197998 100.226761,117.767075 
	C94.808685,120.636810 89.320496,118.848572 83.481674,118.892372 
	C83.039566,118.432381 83.053108,118.076439 83.045593,117.454018 
z"/>
<path fill="#252324" opacity="1.000000" stroke="none" 
	d="
M72.105667,95.783524 
	C72.511078,95.703987 72.494827,95.764534 72.522697,95.774368 
	C71.579277,96.825493 72.766068,98.868164 70.881447,99.421326 
	C70.658455,99.486778 70.089241,98.905205 69.916557,98.518234 
	C69.125435,96.745331 70.410187,96.285431 72.105667,95.783524 
z"/>
<path fill="#252324" opacity="1.000000" stroke="none" 
	d="
M78.012131,95.870331 
	C77.292328,96.522995 76.531929,96.870033 75.447517,97.269089 
	C75.350357,95.564102 75.514282,93.705055 78.012131,95.870331 
z"/>
<path fill="#262425" opacity="1.000000" stroke="none" 
	d="
M67.749954,95.986023 
	C67.751976,96.635948 67.640556,97.095825 67.443024,97.515129 
	C67.420143,97.563683 66.673279,97.369026 66.677048,97.317375 
	C66.724701,96.663841 66.830070,96.004173 67.749954,95.986023 
z"/>
<path fill="#262425" opacity="1.000000" stroke="none" 
	d="
M70.174591,94.306023 
	C70.380859,94.183243 70.756630,94.298561 71.268547,94.706314 
	C71.051155,94.847214 70.697624,94.695671 70.174591,94.306023 
z"/>
<path fill="#262425" opacity="1.000000" stroke="none" 
	d="
M157.315811,118.853607 
	C157.217133,118.676369 157.319717,118.358215 157.679871,117.941475 
	C157.903793,118.184288 157.763672,118.474228 157.315811,118.853607 
z"/>
<path fill="#242122" opacity="1.000000" stroke="none" 
	d="
M116.160057,100.186554 
	C115.751434,99.706490 115.502869,99.413284 114.987549,99.000748 
	C115.234062,97.099159 117.026505,97.507179 118.550018,96.805229 
	C118.951637,97.630035 119.000656,98.500603 119.070526,99.806671 
	C117.728371,105.633049 121.445221,109.251938 123.780380,113.718666 
	C123.614952,114.309174 123.346375,114.569794 122.956085,115.087410 
	C119.116531,112.288094 118.681992,107.055252 115.053696,103.539780 
	C115.092827,102.626274 115.285057,102.011070 115.737244,101.198242 
	C115.997208,101.000610 116.458176,100.841629 116.458176,100.841629 
	C116.458176,100.841629 116.320114,100.373405 116.160057,100.186554 
z"/>
<path fill="#191919" opacity="1.000000" stroke="none" 
	d="
M107.784782,100.509720 
	C109.522415,99.904427 111.227814,99.970711 111.944962,102.526962 
	C109.663139,104.371429 109.426109,107.146072 108.027382,109.588234 
	C106.172821,110.218071 105.591385,109.799438 106.346245,107.832161 
	C107.189735,105.633865 108.792496,103.524551 107.784782,100.509720 
z"/>
<path fill="#242122" opacity="1.000000" stroke="none" 
	d="
M131.676651,141.998260 
	C128.206726,145.067902 126.764183,144.786713 125.179344,140.129608 
	C125.676399,139.238510 126.042809,139.063538 126.751297,138.916534 
	C129.033859,139.081024 130.326263,140.290863 131.676651,141.998260 
z"/>
<path fill="#2C2C2C" opacity="1.000000" stroke="none" 
	d="
M100.418152,118.092812 
	C100.048401,117.895927 100.033340,117.670128 99.982849,117.106735 
	C101.682648,115.689865 102.281921,112.918526 105.184341,113.679382 
	C104.151512,115.737068 103.119118,117.638725 100.418152,118.092812 
z"/>
<path fill="#242122" opacity="1.000000" stroke="none" 
	d="
M125.220825,139.682281 
	C123.516220,139.877640 121.470497,140.275665 122.887123,137.277695 
	C123.567055,137.135910 124.121948,137.299728 124.847443,137.705231 
	C125.388786,138.350876 125.529984,138.823425 125.220825,139.682281 
z"/>
<path fill="#201E1F" opacity="1.000000" stroke="none" 
	d="
M125.313950,139.972412 
	C125.002960,139.543747 125.005920,139.087509 125.013466,138.289093 
	C125.584190,138.086594 126.150330,138.226273 126.884735,138.611771 
	C126.577972,139.220001 126.102943,139.582413 125.313950,139.972412 
z"/>
<path fill="#201E1F" opacity="1.000000" stroke="none" 
	d="
M142.660645,144.514496 
	C142.883102,144.766205 142.753479,145.161743 142.388245,145.765091 
	C142.204605,145.534714 142.256592,145.096527 142.660645,144.514496 
z"/>
<path fill="#242122" opacity="1.000000" stroke="none" 
	d="
M135.315094,155.998993 
	C135.307220,155.382874 135.552017,154.559113 135.939789,154.485184 
	C136.640625,154.351547 136.862549,155.102020 136.960388,156.063782 
	C136.522812,156.301620 136.077499,156.215485 135.315094,155.998993 
z"/>
<path fill="#2C2C2C" opacity="1.000000" stroke="none" 
	d="
M115.998779,100.249924 
	C116.361366,100.382469 117.565445,100.595726 116.130684,101.156776 
	C115.997322,100.833794 115.997444,100.666969 115.998779,100.249924 
z"/>
</svg>