<svg version="1.1" id="Layer_1" xmlns="http://www.w3.org/2000/svg" xmlns:xlink="http://www.w3.org/1999/xlink" x="0px" y="0px"
	 width="100%" viewBox="0 0 826 180" enable-background="new 0 0 826 180" xml:space="preserve">
<path fill="#FEFEFE" opacity="1.000000" stroke="none" 
	d="
M597.000000,181.000000 
	C398.000031,181.000000 199.500046,181.000000 1.000053,181.000000 
	C1.000036,121.000031 1.000036,61.000061 1.000018,1.000069 
	C276.333282,1.000046 551.666565,1.000046 826.999878,1.000023 
	C826.999878,60.999928 826.999878,120.999855 826.999939,180.999893 
	C750.500000,181.000000 674.000000,181.000000 597.000000,181.000000 
M431.871979,139.024796 
	C432.201111,137.314560 432.681854,135.617722 432.834503,133.891876 
	C433.751556,123.523605 434.593292,113.148666 435.551544,101.683983 
	C444.351654,103.742683 451.843994,105.495453 460.320099,107.478363 
	C460.931915,103.253181 461.756683,98.751030 462.185974,94.211479 
	C462.523987,90.637375 460.594208,88.900810 456.992828,89.561028 
	C450.674744,90.719269 444.380524,92.007652 438.094299,93.237999 
	C438.094299,86.508301 438.094299,79.305099 438.094299,71.716133 
	C439.917328,72.034286 441.672760,72.339272 443.427673,72.647156 
	C449.790527,73.763458 456.118347,75.441208 462.525787,75.839592 
	C468.901855,76.236023 473.480896,72.319504 475.247528,66.602356 
	C476.925293,61.172787 475.507263,56.337887 471.183380,52.891541 
	C464.267548,58.502556 456.164154,57.211559 448.257629,56.530407 
	C441.145355,55.917679 434.084656,54.275551 426.978333,54.117943 
	C413.690704,53.823246 407.837036,61.414673 410.306488,74.322388 
	C414.008423,73.048393 417.764954,71.755623 421.908173,70.329773 
	C421.908173,74.687096 422.379303,78.076416 421.810944,81.281387 
	C420.592957,88.149391 418.605408,94.879974 417.360046,101.744293 
	C415.676880,111.021629 413.372253,120.354065 413.210602,129.695328 
	C413.025970,140.364838 421.803986,144.620926 431.871979,139.024796 
M55.272362,111.766060 
	C54.779411,118.206230 53.842548,124.652603 53.932537,131.084625 
	C54.005867,136.325729 57.147877,140.127487 62.379631,141.642044 
	C68.537086,143.424591 73.246185,139.515472 73.595985,133.303268 
	C74.170609,123.098289 75.299370,112.924500 76.286896,101.685852 
	C85.143417,103.765732 92.621613,105.521919 100.861938,107.457085 
	C101.540062,103.670639 102.671646,99.656837 102.885773,95.594681 
	C103.177597,90.058212 101.930145,88.879784 96.562126,89.671898 
	C90.576706,90.555107 84.689102,92.101097 78.702133,93.370644 
	C78.702133,86.355659 78.702133,79.159180 78.702133,71.491386 
	C83.194000,72.500969 87.501175,73.863960 91.905800,74.357826 
	C97.262436,74.958450 102.825684,75.613945 108.068428,74.784630 
	C113.039711,73.998245 115.664528,69.591873 116.308952,64.592812 
	C116.899788,60.009495 116.230721,55.708851 113.457588,53.794212 
	C107.605118,55.068810 103.162277,56.932205 98.779213,56.800865 
	C90.172386,56.542957 81.579651,55.325691 73.015617,54.234455 
	C56.918732,52.183369 50.470688,57.613735 50.349117,73.616142 
	C50.346828,73.917343 50.499611,74.219727 50.563984,74.461304 
	C54.464890,73.130455 58.379944,71.794785 62.841404,70.272697 
	C62.841404,72.235489 62.975815,73.082314 62.821289,73.872658 
	C60.402996,86.241386 57.947422,98.602837 55.272362,111.766060 
M163.235092,124.070335 
	C163.188843,111.906754 166.255737,100.347084 170.368851,89.056503 
	C171.699539,85.403687 170.527328,83.317024 167.566803,81.678940 
	C159.700867,77.326653 151.817535,81.015640 150.346420,89.671387 
	C150.285751,90.028336 149.931107,90.335320 149.647675,90.765327 
	C144.176697,80.373367 137.389725,77.582649 128.218185,82.013428 
	C125.858475,83.153412 123.587685,84.691002 121.650398,86.456665 
	C110.169685,96.920227 106.570244,120.108337 114.189629,133.677673 
	C119.415314,142.984085 128.812759,144.573517 136.591919,137.279053 
	C138.909912,135.105469 140.720551,132.390823 142.912323,129.744598 
	C145.125610,139.097580 148.534576,142.492737 154.872009,141.957657 
	C163.164597,141.257507 170.121246,134.686249 170.284515,127.399002 
	C165.460800,130.464890 164.883408,130.259277 163.235092,124.070335 
M475.656586,136.822067 
	C479.118744,138.543686 482.570953,141.676453 486.045044,141.700851 
	C493.914703,141.756104 498.211578,135.445129 502.400452,128.991501 
	C503.840118,138.638397 507.638916,142.567520 514.289001,141.950470 
	C522.111755,141.224625 529.074829,135.042755 528.632751,129.216095 
	C523.459656,129.377960 521.775024,128.268906 522.686401,122.450058 
	C524.426758,111.338760 526.813965,100.290344 529.677490,89.411880 
	C530.861694,84.912956 529.614868,82.199173 525.891479,81.341133 
	C522.204773,80.491547 517.675537,80.110275 514.420776,81.557961 
	C511.695984,82.769890 510.276520,86.916595 508.466858,89.496063 
	C502.953583,80.674835 497.851807,77.870178 489.801422,81.213730 
	C485.521210,82.991425 481.318207,86.001541 478.262482,89.490646 
	C467.848053,101.382057 466.704193,122.913872 475.656586,136.822067 
M355.802155,90.277161 
	C357.774841,102.559906 351.141693,111.154205 343.431274,119.330856 
	C341.237518,121.657242 339.231506,122.170280 336.075317,120.740288 
	C329.589630,117.801788 324.828979,118.772743 321.631042,122.895561 
	C318.075500,127.479317 318.134094,135.009781 321.757568,139.156754 
	C324.941254,142.800430 329.803101,143.522186 335.259583,139.341919 
	C340.449799,135.365601 345.077362,136.068268 350.494568,137.818863 
	C355.688416,139.497253 361.026947,140.880310 366.403168,141.803223 
	C373.057129,142.945496 378.501587,139.637970 380.835114,133.739227 
	C383.248413,127.638771 382.024963,122.012352 377.355774,118.497749 
	C371.481415,125.637665 363.770294,127.005920 354.175781,125.418228 
	C356.112457,123.898071 357.349548,122.921875 358.592041,121.952637 
	C366.263458,115.968422 372.158417,108.689934 374.700806,99.129005 
	C377.276611,89.442268 374.011017,80.897163 365.704895,77.136406 
	C354.947784,72.265900 343.969635,72.688560 333.537750,78.207909 
	C326.413788,81.977081 323.506683,89.255554 325.693695,95.817177 
	C328.058014,102.910774 335.956451,107.561920 343.193176,106.582748 
	C343.193176,101.296661 342.211365,95.852165 343.438934,90.962334 
	C345.013367,84.690727 351.367432,84.249619 355.802155,90.277161 
M291.997589,90.827415 
	C289.796326,85.280159 285.771057,82.083549 279.902405,80.832222 
	C257.551605,76.066536 235.718048,94.281837 236.502991,117.144188 
	C236.965363,130.611755 244.957169,139.905472 258.143402,141.692673 
	C266.457581,142.819519 274.419373,141.179321 281.500671,136.501663 
	C287.541168,132.511536 290.672363,126.860222 290.531982,118.888283 
	C282.720520,125.628716 274.921417,131.060593 264.637421,126.288162 
	C260.024597,124.147499 258.683563,119.837883 258.180786,114.220367 
	C268.369202,119.540688 277.376465,119.385193 285.453217,112.240135 
	C291.635437,106.771072 294.361084,99.918167 291.997589,90.827415 
M639.344238,80.890549 
	C616.414124,75.856316 594.103333,95.145264 595.985107,118.520164 
	C596.811523,128.784851 601.416382,136.755844 611.584045,140.233124 
	C622.166382,143.852234 632.330383,142.183777 641.539429,135.981049 
	C647.241760,132.140228 650.039734,126.486290 649.876343,118.918015 
	C642.165710,125.572754 634.326904,131.060135 624.086731,126.353287 
	C619.558777,124.272049 617.617310,120.080002 617.880493,114.859230 
	C628.635193,118.449760 630.707886,118.678154 636.526611,116.985008 
	C645.230225,114.452408 651.973450,105.957314 652.267761,97.154449 
	C652.529907,89.313560 648.539551,83.987999 639.344238,80.890549 
M590.502686,91.452881 
	C589.965576,85.384079 585.993286,82.371979 580.654297,81.000702 
	C560.403259,75.799377 539.731812,90.080284 536.449402,111.407082 
	C534.451294,124.389450 540.385254,136.230377 550.915771,140.273987 
	C562.724976,144.808609 579.750427,139.767410 586.043274,129.509109 
	C587.761108,126.708778 588.314697,123.194267 589.402649,120.007500 
	C588.927551,119.859604 588.452515,119.711708 587.977478,119.563812 
	C587.011841,120.664688 586.114502,121.835518 585.069885,122.855461 
	C576.195190,131.520218 561.957458,129.149780 558.418640,118.240334 
	C556.131104,111.188232 556.482117,104.000977 560.163086,97.444252 
	C561.560181,94.955727 563.818115,92.622574 566.240234,91.109398 
	C570.559265,88.411118 574.223572,90.546532 574.484985,95.607430 
	C574.609619,98.020767 574.207397,100.461327 574.043396,102.895348 
	C583.247192,103.163185 588.400146,99.742386 590.502686,91.452881 
M177.576233,122.651230 
	C181.776505,138.157623 192.926498,144.594070 209.262436,140.942368 
	C222.125259,138.067062 230.927490,128.507202 229.143539,119.039856 
	C228.109512,120.290878 227.251236,121.482445 226.241180,122.527267 
	C217.502533,131.566467 202.802948,129.290833 199.234818,118.197067 
	C197.018494,111.306206 197.265152,104.240402 200.818420,97.842186 
	C202.345917,95.091705 204.913483,92.548111 207.614288,90.908119 
	C211.523453,88.534363 214.938522,90.639534 215.256302,95.194908 
	C215.434921,97.755539 215.072357,100.353928 214.949402,103.026550 
	C216.284943,103.026550 217.276306,103.110641 218.249481,103.013092 
	C225.286987,102.307663 230.963547,97.510880 231.287567,92.039230 
	C231.616577,86.483505 227.260315,81.938148 219.608353,80.640625 
	C192.423965,76.031029 173.564087,100.298584 177.576233,122.651230 
z"/>
<path fill="#252525" opacity="1.000000" stroke="none" 
	d="
M431.542480,139.272629 
	C421.803986,144.620926 413.025970,140.364838 413.210602,129.695328 
	C413.372253,120.354065 415.676880,111.021629 417.360046,101.744293 
	C418.605408,94.879974 420.592957,88.149391 421.810944,81.281387 
	C422.379303,78.076416 421.908173,74.687096 421.908173,70.329773 
	C417.764954,71.755623 414.008423,73.048393 410.306488,74.322388 
	C407.837036,61.414673 413.690704,53.823246 426.978333,54.117943 
	C434.084656,54.275551 441.145355,55.917679 448.257629,56.530407 
	C456.164154,57.211559 464.267548,58.502556 471.183380,52.891541 
	C475.507263,56.337887 476.925293,61.172787 475.247528,66.602356 
	C473.480896,72.319504 468.901855,76.236023 462.525787,75.839592 
	C456.118347,75.441208 449.790527,73.763458 443.427673,72.647156 
	C441.672760,72.339272 439.917328,72.034286 438.094299,71.716133 
	C438.094299,79.305099 438.094299,86.508301 438.094299,93.237999 
	C444.380524,92.007652 450.674744,90.719269 456.992828,89.561028 
	C460.594208,88.900810 462.523987,90.637375 462.185974,94.211479 
	C461.756683,98.751030 460.931915,103.253181 460.320099,107.478363 
	C451.843994,105.495453 444.351654,103.742683 435.551544,101.683983 
	C434.593292,113.148666 433.751556,123.523605 432.834503,133.891876 
	C432.681854,135.617722 432.201111,137.314560 431.542480,139.272629 
z"/>
<path fill="#252525" opacity="1.000000" stroke="none" 
	d="
M55.386398,111.366013 
	C57.947422,98.602837 60.402996,86.241386 62.821289,73.872658 
	C62.975815,73.082314 62.841404,72.235489 62.841404,70.272697 
	C58.379944,71.794785 54.464890,73.130455 50.563984,74.461304 
	C50.499611,74.219727 50.346828,73.917343 50.349117,73.616142 
	C50.470688,57.613735 56.918732,52.183369 73.015617,54.234455 
	C81.579651,55.325691 90.172386,56.542957 98.779213,56.800865 
	C103.162277,56.932205 107.605118,55.068810 113.457588,53.794212 
	C116.230721,55.708851 116.899788,60.009495 116.308952,64.592812 
	C115.664528,69.591873 113.039711,73.998245 108.068428,74.784630 
	C102.825684,75.613945 97.262436,74.958450 91.905800,74.357826 
	C87.501175,73.863960 83.194000,72.500969 78.702133,71.491386 
	C78.702133,79.159180 78.702133,86.355659 78.702133,93.370644 
	C84.689102,92.101097 90.576706,90.555107 96.562126,89.671898 
	C101.930145,88.879784 103.177597,90.058212 102.885773,95.594681 
	C102.671646,99.656837 101.540062,103.670639 100.861938,107.457085 
	C92.621613,105.521919 85.143417,103.765732 76.286896,101.685852 
	C75.299370,112.924500 74.170609,123.098289 73.595985,133.303268 
	C73.246185,139.515472 68.537086,143.424591 62.379631,141.642044 
	C57.147877,140.127487 54.005867,136.325729 53.932537,131.084625 
	C53.842548,124.652603 54.779411,118.206230 55.386398,111.366013 
z"/>
<path fill="#252525" opacity="1.000000" stroke="none" 
	d="
M163.270111,124.492020 
	C164.883408,130.259277 165.460800,130.464890 170.284515,127.399002 
	C170.121246,134.686249 163.164597,141.257507 154.872009,141.957657 
	C148.534576,142.492737 145.125610,139.097580 142.912323,129.744598 
	C140.720551,132.390823 138.909912,135.105469 136.591919,137.279053 
	C128.812759,144.573517 119.415314,142.984085 114.189629,133.677673 
	C106.570244,120.108337 110.169685,96.920227 121.650398,86.456665 
	C123.587685,84.691002 125.858475,83.153412 128.218185,82.013428 
	C137.389725,77.582649 144.176697,80.373367 149.647675,90.765327 
	C149.931107,90.335320 150.285751,90.028336 150.346420,89.671387 
	C151.817535,81.015640 159.700867,77.326653 167.566803,81.678940 
	C170.527328,83.317024 171.699539,85.403687 170.368851,89.056503 
	C166.255737,100.347084 163.188843,111.906754 163.270111,124.492020 
M144.810989,114.180359 
	C145.998917,110.202477 148.329865,106.136009 148.030487,102.273392 
	C147.768311,98.890709 145.035690,95.218918 142.391602,92.747787 
	C141.392181,91.813744 136.865295,93.130379 135.183060,94.725403 
	C129.229263,100.370544 126.821877,115.597824 130.120377,122.967232 
	C131.890335,126.921623 135.002426,127.887726 137.905304,124.729347 
	C140.548828,121.853165 142.339661,118.193283 144.810989,114.180359 
z"/>
<path fill="#252525" opacity="1.000000" stroke="none" 
	d="
M475.421692,136.545807 
	C466.704193,122.913872 467.848053,101.382057 478.262482,89.490646 
	C481.318207,86.001541 485.521210,82.991425 489.801422,81.213730 
	C497.851807,77.870178 502.953583,80.674835 508.466858,89.496063 
	C510.276520,86.916595 511.695984,82.769890 514.420776,81.557961 
	C517.675537,80.110275 522.204773,80.491547 525.891479,81.341133 
	C529.614868,82.199173 530.861694,84.912956 529.677490,89.411880 
	C526.813965,100.290344 524.426758,111.338760 522.686401,122.450058 
	C521.775024,128.268906 523.459656,129.377960 528.632751,129.216095 
	C529.074829,135.042755 522.111755,141.224625 514.289001,141.950470 
	C507.638916,142.567520 503.840118,138.638397 502.400452,128.991501 
	C498.211578,135.445129 493.914703,141.756104 486.045044,141.700851 
	C482.570953,141.676453 479.118744,138.543686 475.421692,136.545807 
M495.616211,126.033691 
	C503.818970,119.757614 506.295166,110.438454 507.517853,101.076874 
	C507.862915,98.434944 504.147736,94.189507 501.237091,92.470222 
	C497.686584,90.373016 494.771362,93.613647 492.835968,96.728249 
	C488.112915,104.328850 487.013855,112.585854 488.956268,121.220879 
	C489.627502,124.204918 490.807678,127.146820 495.616211,126.033691 
z"/>
<path fill="#262626" opacity="1.000000" stroke="none" 
	d="
M355.626984,89.894333 
	C351.367432,84.249619 345.013367,84.690727 343.438934,90.962334 
	C342.211365,95.852165 343.193176,101.296661 343.193176,106.582748 
	C335.956451,107.561920 328.058014,102.910774 325.693695,95.817177 
	C323.506683,89.255554 326.413788,81.977081 333.537750,78.207909 
	C343.969635,72.688560 354.947784,72.265900 365.704895,77.136406 
	C374.011017,80.897163 377.276611,89.442268 374.700806,99.129005 
	C372.158417,108.689934 366.263458,115.968422 358.592041,121.952637 
	C357.349548,122.921875 356.112457,123.898071 354.175781,125.418228 
	C363.770294,127.005920 371.481415,125.637665 377.355774,118.497749 
	C382.024963,122.012352 383.248413,127.638771 380.835114,133.739227 
	C378.501587,139.637970 373.057129,142.945496 366.403168,141.803223 
	C361.026947,140.880310 355.688416,139.497253 350.494568,137.818863 
	C345.077362,136.068268 340.449799,135.365601 335.259583,139.341919 
	C329.803101,143.522186 324.941254,142.800430 321.757568,139.156754 
	C318.134094,135.009781 318.075500,127.479317 321.631042,122.895561 
	C324.828979,118.772743 329.589630,117.801788 336.075317,120.740288 
	C339.231506,122.170280 341.237518,121.657242 343.431274,119.330856 
	C351.141693,111.154205 357.774841,102.559906 355.626984,89.894333 
z"/>
<path fill="#252525" opacity="1.000000" stroke="none" 
	d="
M292.124023,91.212128 
	C294.361084,99.918167 291.635437,106.771072 285.453217,112.240135 
	C277.376465,119.385193 268.369202,119.540688 258.180786,114.220367 
	C258.683563,119.837883 260.024597,124.147499 264.637421,126.288162 
	C274.921417,131.060593 282.720520,125.628716 290.531982,118.888283 
	C290.672363,126.860222 287.541168,132.511536 281.500671,136.501663 
	C274.419373,141.179321 266.457581,142.819519 258.143402,141.692673 
	C244.957169,139.905472 236.965363,130.611755 236.502991,117.144188 
	C235.718048,94.281837 257.551605,76.066536 279.902405,80.832222 
	C285.771057,82.083549 289.796326,85.280159 292.124023,91.212128 
M262.229523,94.811028 
	C260.636353,99.059883 259.043182,103.308731 257.444153,107.573212 
	C262.325195,110.360855 266.542206,111.282013 270.450623,108.540977 
	C274.806000,105.486488 276.720917,100.851112 276.198303,95.519318 
	C275.767578,91.125214 272.009430,88.870026 267.890289,90.575165 
	C265.980011,91.365944 264.411255,92.981850 262.229523,94.811028 
z"/>
<path fill="#252525" opacity="1.000000" stroke="none" 
	d="
M639.752625,80.943558 
	C648.539551,83.987999 652.529907,89.313560 652.267761,97.154449 
	C651.973450,105.957314 645.230225,114.452408 636.526611,116.985008 
	C630.707886,118.678154 628.635193,118.449760 617.880493,114.859230 
	C617.617310,120.080002 619.558777,124.272049 624.086731,126.353287 
	C634.326904,131.060135 642.165710,125.572754 649.876343,118.918015 
	C650.039734,126.486290 647.241760,132.140228 641.539429,135.981049 
	C632.330383,142.183777 622.166382,143.852234 611.584045,140.233124 
	C601.416382,136.755844 596.811523,128.784851 595.985107,118.520164 
	C594.103333,95.145264 616.414124,75.856316 639.752625,80.943558 
M624.569580,91.853699 
	C619.968201,95.319496 618.304565,100.288193 617.908142,105.701523 
	C617.826111,106.821655 619.052307,108.669762 620.130188,109.139496 
	C626.879578,112.081024 633.409241,108.341461 635.033752,100.147644 
	C635.569763,97.443954 634.964355,93.471176 633.227783,91.693863 
	C631.869751,90.303970 627.958374,91.408859 624.569580,91.853699 
z"/>
<path fill="#252525" opacity="1.000000" stroke="none" 
	d="
M590.494507,91.823257 
	C588.400146,99.742386 583.247192,103.163185 574.043396,102.895348 
	C574.207397,100.461327 574.609619,98.020767 574.484985,95.607430 
	C574.223572,90.546532 570.559265,88.411118 566.240234,91.109398 
	C563.818115,92.622574 561.560181,94.955727 560.163086,97.444252 
	C556.482117,104.000977 556.131104,111.188232 558.418640,118.240334 
	C561.957458,129.149780 576.195190,131.520218 585.069885,122.855461 
	C586.114502,121.835518 587.011841,120.664688 587.977478,119.563812 
	C588.452515,119.711708 588.927551,119.859604 589.402649,120.007500 
	C588.314697,123.194267 587.761108,126.708778 586.043274,129.509109 
	C579.750427,139.767410 562.724976,144.808609 550.915771,140.273987 
	C540.385254,136.230377 534.451294,124.389450 536.449402,111.407082 
	C539.731812,90.080284 560.403259,75.799377 580.654297,81.000702 
	C585.993286,82.371979 589.965576,85.384079 590.494507,91.823257 
z"/>
<path fill="#262626" opacity="1.000000" stroke="none" 
	d="
M177.478088,122.228989 
	C173.564087,100.298584 192.423965,76.031029 219.608353,80.640625 
	C227.260315,81.938148 231.616577,86.483505 231.287567,92.039230 
	C230.963547,97.510880 225.286987,102.307663 218.249481,103.013092 
	C217.276306,103.110641 216.284943,103.026550 214.949402,103.026550 
	C215.072357,100.353928 215.434921,97.755539 215.256302,95.194908 
	C214.938522,90.639534 211.523453,88.534363 207.614288,90.908119 
	C204.913483,92.548111 202.345917,95.091705 200.818420,97.842186 
	C197.265152,104.240402 197.018494,111.306206 199.234818,118.197067 
	C202.802948,129.290833 217.502533,131.566467 226.241180,122.527267 
	C227.251236,121.482445 228.109512,120.290878 229.143539,119.039856 
	C230.927490,128.507202 222.125259,138.067062 209.262436,140.942368 
	C192.926498,144.594070 181.776505,138.157623 177.478088,122.228989 
z"/>
<path fill="#F9F9F9" opacity="1.000000" stroke="none" 
	d="
M144.658661,114.529602 
	C142.339661,118.193283 140.548828,121.853165 137.905304,124.729347 
	C135.002426,127.887726 131.890335,126.921623 130.120377,122.967232 
	C126.821877,115.597824 129.229263,100.370544 135.183060,94.725403 
	C136.865295,93.130379 141.392181,91.813744 142.391602,92.747787 
	C145.035690,95.218918 147.768311,98.890709 148.030487,102.273392 
	C148.329865,106.136009 145.998917,110.202477 144.658661,114.529602 
z"/>
<path fill="#F7F7F7" opacity="1.000000" stroke="none" 
	d="
M495.284943,126.148590 
	C490.807678,127.146820 489.627502,124.204918 488.956268,121.220879 
	C487.013855,112.585854 488.112915,104.328850 492.835968,96.728249 
	C494.771362,93.613647 497.686584,90.373016 501.237091,92.470222 
	C504.147736,94.189507 507.862915,98.434944 507.517853,101.076874 
	C506.295166,110.438454 503.818970,119.757614 495.284943,126.148590 
z"/>
<path fill="#F7F7F7" opacity="1.000000" stroke="none" 
	d="
M262.458618,94.517357 
	C264.411255,92.981850 265.980011,91.365944 267.890289,90.575165 
	C272.009430,88.870026 275.767578,91.125214 276.198303,95.519318 
	C276.720917,100.851112 274.806000,105.486488 270.450623,108.540977 
	C266.542206,111.282013 262.325195,110.360855 257.444153,107.573212 
	C259.043182,103.308731 260.636353,99.059883 262.458618,94.517357 
z"/>
<path fill="#F8F8F8" opacity="1.000000" stroke="none" 
	d="
M624.875549,91.629471 
	C627.958374,91.408859 631.869751,90.303970 633.227783,91.693863 
	C634.964355,93.471176 635.569763,97.443954 635.033752,100.147644 
	C633.409241,108.341461 626.879578,112.081024 620.130188,109.139496 
	C619.052307,108.669762 617.826111,106.821655 617.908142,105.701523 
	C618.304565,100.288193 619.968201,95.319496 624.875549,91.629471 
z"/>
</svg>